<mxfile host="app.diagrams.net" agent="Mozilla/5.0 (Windows NT 10.0; Win64; x64) AppleWebKit/537.36 (KHTML, like Gecko) Chrome/131.0.0.0 Safari/537.36" version="24.9.3">
  <diagram name="Page-1" id="ETGu-aNEVsr3gOkkvAn5">
    <mxGraphModel dx="2924" dy="2198" grid="1" gridSize="10" guides="1" tooltips="1" connect="1" arrows="1" fold="1" page="1" pageScale="1" pageWidth="850" pageHeight="1100" math="0" shadow="0">
      <root>
        <mxCell id="0" />
        <mxCell id="1" parent="0" />
        <mxCell id="X9nIyCgz0S-9e33KsFdd-1" value="LANDING PAGE" style="rounded=0;whiteSpace=wrap;html=1;" vertex="1" parent="1">
          <mxGeometry x="-280" y="230" width="510" height="590" as="geometry" />
        </mxCell>
        <mxCell id="X9nIyCgz0S-9e33KsFdd-6" style="edgeStyle=orthogonalEdgeStyle;rounded=0;orthogonalLoop=1;jettySize=auto;html=1;" edge="1" parent="1" source="X9nIyCgz0S-9e33KsFdd-4" target="X9nIyCgz0S-9e33KsFdd-5">
          <mxGeometry relative="1" as="geometry" />
        </mxCell>
        <mxCell id="X9nIyCgz0S-9e33KsFdd-4" value="Login" style="rounded=1;fillColor=#0057D8;strokeColor=none;html=1;whiteSpace=wrap;fontColor=#ffffff;align=center;verticalAlign=middle;fontStyle=0;fontSize=12;sketch=0;" vertex="1" parent="1">
          <mxGeometry x="80" y="270" width="86" height="33" as="geometry" />
        </mxCell>
        <mxCell id="X9nIyCgz0S-9e33KsFdd-11" style="edgeStyle=orthogonalEdgeStyle;rounded=0;orthogonalLoop=1;jettySize=auto;html=1;" edge="1" parent="1" source="X9nIyCgz0S-9e33KsFdd-5">
          <mxGeometry relative="1" as="geometry">
            <mxPoint x="690" y="220" as="targetPoint" />
          </mxGeometry>
        </mxCell>
        <mxCell id="X9nIyCgz0S-9e33KsFdd-12" value="OK" style="edgeLabel;html=1;align=center;verticalAlign=middle;resizable=0;points=[];" vertex="1" connectable="0" parent="X9nIyCgz0S-9e33KsFdd-11">
          <mxGeometry x="0.6472" relative="1" as="geometry">
            <mxPoint as="offset" />
          </mxGeometry>
        </mxCell>
        <mxCell id="X9nIyCgz0S-9e33KsFdd-5" value="" style="rounded=0;whiteSpace=wrap;html=1;" vertex="1" parent="1">
          <mxGeometry x="100" y="-170" width="370" height="280" as="geometry" />
        </mxCell>
        <mxCell id="X9nIyCgz0S-9e33KsFdd-7" value="Login with Tiktok ?" style="rounded=1;fillColor=#0057D8;strokeColor=none;html=1;whiteSpace=wrap;fontColor=#ffffff;align=center;verticalAlign=middle;fontStyle=0;fontSize=12;sketch=0;" vertex="1" parent="1">
          <mxGeometry x="242" y="-50" width="86" height="33" as="geometry" />
        </mxCell>
        <mxCell id="X9nIyCgz0S-9e33KsFdd-8" value="Login with Google ?" style="rounded=1;fillColor=#0057D8;strokeColor=none;html=1;whiteSpace=wrap;fontColor=#ffffff;align=center;verticalAlign=middle;fontStyle=0;fontSize=12;sketch=0;" vertex="1" parent="1">
          <mxGeometry x="242" y="-100" width="86" height="33" as="geometry" />
        </mxCell>
        <mxCell id="X9nIyCgz0S-9e33KsFdd-9" value="SERVER ACTION&lt;br&gt;Cookie http only saved ( nextjs side )" style="rounded=1;whiteSpace=wrap;html=1;" vertex="1" parent="1">
          <mxGeometry x="580" y="-130" width="340" height="180" as="geometry" />
        </mxCell>
        <mxCell id="X9nIyCgz0S-9e33KsFdd-10" value="" style="rounded=0;whiteSpace=wrap;html=1;" vertex="1" parent="1">
          <mxGeometry x="440" y="230" width="510" height="590" as="geometry" />
        </mxCell>
        <mxCell id="X9nIyCgz0S-9e33KsFdd-15" style="edgeStyle=orthogonalEdgeStyle;rounded=0;orthogonalLoop=1;jettySize=auto;html=1;" edge="1" parent="1" source="X9nIyCgz0S-9e33KsFdd-13" target="X9nIyCgz0S-9e33KsFdd-14">
          <mxGeometry relative="1" as="geometry" />
        </mxCell>
        <mxCell id="X9nIyCgz0S-9e33KsFdd-13" value="youtube link" style="html=1;shadow=0;dashed=0;shape=mxgraph.bootstrap.rrect;rSize=5;strokeColor=#CED4DA;strokeWidth=1;fillColor=#E9ECEF;fontColor=#505050;whiteSpace=wrap;align=left;verticalAlign=middle;spacingLeft=10;fontSize=14;" vertex="1" parent="1">
          <mxGeometry x="565" y="270" width="260" height="47" as="geometry" />
        </mxCell>
        <mxCell id="X9nIyCgz0S-9e33KsFdd-16" style="edgeStyle=orthogonalEdgeStyle;rounded=0;orthogonalLoop=1;jettySize=auto;html=1;entryX=0.996;entryY=0.459;entryDx=0;entryDy=0;entryPerimeter=0;" edge="1" parent="1" source="X9nIyCgz0S-9e33KsFdd-14" target="X9nIyCgz0S-9e33KsFdd-10">
          <mxGeometry relative="1" as="geometry">
            <mxPoint x="1420" y="500" as="targetPoint" />
            <Array as="points">
              <mxPoint x="1230" y="501" />
            </Array>
          </mxGeometry>
        </mxCell>
        <mxCell id="X9nIyCgz0S-9e33KsFdd-17" value="OK FINISHED" style="edgeLabel;html=1;align=center;verticalAlign=middle;resizable=0;points=[];" vertex="1" connectable="0" parent="X9nIyCgz0S-9e33KsFdd-16">
          <mxGeometry x="0.3086" y="-3" relative="1" as="geometry">
            <mxPoint as="offset" />
          </mxGeometry>
        </mxCell>
        <mxCell id="X9nIyCgz0S-9e33KsFdd-14" value="yt-dlp&amp;nbsp;&lt;div&gt;if it&#39;s too long, must split video in multiple part&lt;br&gt;TRANSCRIBE&amp;nbsp;&lt;/div&gt;&lt;div&gt;send to groq&amp;nbsp;&lt;/div&gt;&lt;div&gt;edit video ( each clip )&amp;nbsp;&lt;/div&gt;&lt;div&gt;send it back here&amp;nbsp;&lt;/div&gt;&lt;div&gt;&lt;br&gt;&lt;/div&gt;&lt;div&gt;=&amp;gt; &quot;queue system&quot; display while laoding&lt;/div&gt;&lt;div&gt;&lt;br&gt;&lt;/div&gt;" style="rounded=1;whiteSpace=wrap;html=1;" vertex="1" parent="1">
          <mxGeometry x="1010" y="30" width="340" height="180" as="geometry" />
        </mxCell>
        <mxCell id="X9nIyCgz0S-9e33KsFdd-20" value="" style="whiteSpace=wrap;html=1;aspect=fixed;" vertex="1" parent="1">
          <mxGeometry x="484" y="440" width="140" height="140" as="geometry" />
        </mxCell>
        <mxCell id="X9nIyCgz0S-9e33KsFdd-21" value="" style="whiteSpace=wrap;html=1;aspect=fixed;" vertex="1" parent="1">
          <mxGeometry x="484" y="600" width="140" height="140" as="geometry" />
        </mxCell>
        <mxCell id="X9nIyCgz0S-9e33KsFdd-22" value="Clip 1" style="text;html=1;align=center;verticalAlign=middle;whiteSpace=wrap;rounded=0;" vertex="1" parent="1">
          <mxGeometry x="634" y="450" width="60" height="30" as="geometry" />
        </mxCell>
        <mxCell id="X9nIyCgz0S-9e33KsFdd-23" value="Clip 2" style="text;html=1;align=center;verticalAlign=middle;whiteSpace=wrap;rounded=0;" vertex="1" parent="1">
          <mxGeometry x="634" y="600" width="60" height="30" as="geometry" />
        </mxCell>
        <mxCell id="X9nIyCgz0S-9e33KsFdd-25" value="Upload TikTok" style="rounded=1;fillColor=#0057D8;strokeColor=none;html=1;whiteSpace=wrap;fontColor=#ffffff;align=center;verticalAlign=middle;fontStyle=0;fontSize=12;sketch=0;" vertex="1" parent="1">
          <mxGeometry x="764" y="530" width="86" height="33" as="geometry" />
        </mxCell>
        <mxCell id="X9nIyCgz0S-9e33KsFdd-26" value="Upload YoutUbe" style="rounded=1;fillColor=#0057D8;strokeColor=none;html=1;whiteSpace=wrap;fontColor=#ffffff;align=center;verticalAlign=middle;fontStyle=0;fontSize=12;sketch=0;" vertex="1" parent="1">
          <mxGeometry x="644" y="530" width="86" height="33" as="geometry" />
        </mxCell>
        <mxCell id="X9nIyCgz0S-9e33KsFdd-27" value="Upload TikTok" style="rounded=1;fillColor=#0057D8;strokeColor=none;html=1;whiteSpace=wrap;fontColor=#ffffff;align=center;verticalAlign=middle;fontStyle=0;fontSize=12;sketch=0;" vertex="1" parent="1">
          <mxGeometry x="764" y="653.5" width="86" height="33" as="geometry" />
        </mxCell>
        <mxCell id="X9nIyCgz0S-9e33KsFdd-28" value="Upload YoutUbe" style="rounded=1;fillColor=#0057D8;strokeColor=none;html=1;whiteSpace=wrap;fontColor=#ffffff;align=center;verticalAlign=middle;fontStyle=0;fontSize=12;sketch=0;" vertex="1" parent="1">
          <mxGeometry x="644" y="653.5" width="86" height="33" as="geometry" />
        </mxCell>
        <mxCell id="X9nIyCgz0S-9e33KsFdd-30" value="User query" style="strokeWidth=1;html=1;shadow=0;dashed=0;shape=mxgraph.ios.iTextInput;strokeColor=#444444;buttonText=;fontSize=8;whiteSpace=wrap;align=left;" vertex="1" parent="1">
          <mxGeometry x="567" y="330" width="240" height="50" as="geometry" />
        </mxCell>
        <mxCell id="X9nIyCgz0S-9e33KsFdd-31" value="Score" style="text;html=1;align=center;verticalAlign=middle;whiteSpace=wrap;rounded=0;" vertex="1" parent="1">
          <mxGeometry x="747" y="450" width="60" height="30" as="geometry" />
        </mxCell>
        <mxCell id="X9nIyCgz0S-9e33KsFdd-32" value="Score" style="text;html=1;align=center;verticalAlign=middle;whiteSpace=wrap;rounded=0;" vertex="1" parent="1">
          <mxGeometry x="757" y="600" width="60" height="30" as="geometry" />
        </mxCell>
      </root>
    </mxGraphModel>
  </diagram>
</mxfile>
